<mxfile host="app.diagrams.net" agent="Mozilla/5.0 (Windows NT 10.0; Win64; x64) AppleWebKit/537.36 (KHTML, like Gecko) Chrome/130.0.0.0 Safari/537.36 OPR/115.0.0.0" version="26.0.8">
  <diagram name="Page-1" id="o64KBLCjI9lIzmUtWdwf">
    <mxGraphModel grid="1" page="1" gridSize="10" guides="1" tooltips="1" connect="1" arrows="1" fold="1" pageScale="1" pageWidth="827" pageHeight="1169" math="0" shadow="0">
      <root>
        <mxCell id="0" />
        <mxCell id="1" parent="0" />
        <mxCell id="-i1zvWEumdSscIj1k0k0-3" value="" style="edgeStyle=orthogonalEdgeStyle;rounded=0;orthogonalLoop=1;jettySize=auto;html=1;" edge="1" parent="1" source="-i1zvWEumdSscIj1k0k0-1" target="-i1zvWEumdSscIj1k0k0-2">
          <mxGeometry relative="1" as="geometry">
            <Array as="points">
              <mxPoint x="414" y="160" />
              <mxPoint x="414" y="160" />
            </Array>
          </mxGeometry>
        </mxCell>
        <mxCell id="-i1zvWEumdSscIj1k0k0-1" value="Start" style="ellipse;whiteSpace=wrap;html=1;" vertex="1" parent="1">
          <mxGeometry x="354" y="50" width="120" height="80" as="geometry" />
        </mxCell>
        <mxCell id="-i1zvWEumdSscIj1k0k0-5" value="" style="edgeStyle=orthogonalEdgeStyle;rounded=0;orthogonalLoop=1;jettySize=auto;html=1;" edge="1" parent="1" source="-i1zvWEumdSscIj1k0k0-2" target="-i1zvWEumdSscIj1k0k0-4">
          <mxGeometry relative="1" as="geometry" />
        </mxCell>
        <mxCell id="-i1zvWEumdSscIj1k0k0-2" value="&lt;code&gt;result = val&lt;/code&gt;&amp;nbsp;&lt;div&gt;and&amp;nbsp;&lt;div&gt;&lt;code&gt;isInteger = false&lt;/code&gt;&lt;/div&gt;&lt;/div&gt;" style="rounded=0;whiteSpace=wrap;html=1;" vertex="1" parent="1">
          <mxGeometry x="314" y="170" width="200" height="80" as="geometry" />
        </mxCell>
        <mxCell id="-i1zvWEumdSscIj1k0k0-7" value="" style="edgeStyle=orthogonalEdgeStyle;rounded=0;orthogonalLoop=1;jettySize=auto;html=1;" edge="1" parent="1" source="-i1zvWEumdSscIj1k0k0-4" target="-i1zvWEumdSscIj1k0k0-6">
          <mxGeometry relative="1" as="geometry" />
        </mxCell>
        <mxCell id="-i1zvWEumdSscIj1k0k0-11" style="edgeStyle=orthogonalEdgeStyle;rounded=0;orthogonalLoop=1;jettySize=auto;html=1;entryX=0.5;entryY=0;entryDx=0;entryDy=0;" edge="1" parent="1" source="-i1zvWEumdSscIj1k0k0-4" target="-i1zvWEumdSscIj1k0k0-9">
          <mxGeometry relative="1" as="geometry">
            <mxPoint x="420" y="620" as="targetPoint" />
            <Array as="points">
              <mxPoint x="640" y="375" />
              <mxPoint x="640" y="620" />
              <mxPoint x="415" y="620" />
            </Array>
          </mxGeometry>
        </mxCell>
        <mxCell id="-i1zvWEumdSscIj1k0k0-4" value="Remove Surrounding Quotes:&lt;div&gt;result starts and ends with &#39;\&#39;&#39;?&lt;/div&gt;" style="rhombus;whiteSpace=wrap;html=1;" vertex="1" parent="1">
          <mxGeometry x="315" y="290" width="199" height="170" as="geometry" />
        </mxCell>
        <mxCell id="-i1zvWEumdSscIj1k0k0-10" value="" style="edgeStyle=orthogonalEdgeStyle;rounded=0;orthogonalLoop=1;jettySize=auto;html=1;" edge="1" parent="1" source="-i1zvWEumdSscIj1k0k0-6" target="-i1zvWEumdSscIj1k0k0-9">
          <mxGeometry relative="1" as="geometry" />
        </mxCell>
        <mxCell id="-i1zvWEumdSscIj1k0k0-6" value="Remove quotes â†’ &lt;code&gt;result = result.substr(1, result.size() - 2)&lt;/code&gt;" style="rounded=0;whiteSpace=wrap;html=1;" vertex="1" parent="1">
          <mxGeometry x="324.5" y="499" width="180" height="85.5" as="geometry" />
        </mxCell>
        <mxCell id="-i1zvWEumdSscIj1k0k0-8" value="True" style="text;html=1;align=center;verticalAlign=middle;resizable=0;points=[];autosize=1;strokeColor=none;fillColor=none;" vertex="1" parent="1">
          <mxGeometry x="405" y="468" width="50" height="30" as="geometry" />
        </mxCell>
        <mxCell id="-i1zvWEumdSscIj1k0k0-13" value="" style="edgeStyle=orthogonalEdgeStyle;rounded=0;orthogonalLoop=1;jettySize=auto;html=1;" edge="1" parent="1" source="-i1zvWEumdSscIj1k0k0-9" target="-i1zvWEumdSscIj1k0k0-12">
          <mxGeometry relative="1" as="geometry" />
        </mxCell>
        <mxCell id="-i1zvWEumdSscIj1k0k0-9" value="Try to parse &lt;code&gt;result&lt;/code&gt; using &lt;code&gt;stoi(result)&lt;/code&gt;" style="rounded=0;whiteSpace=wrap;html=1;" vertex="1" parent="1">
          <mxGeometry x="329.5" y="640" width="170" height="80" as="geometry" />
        </mxCell>
        <mxCell id="-i1zvWEumdSscIj1k0k0-15" value="" style="edgeStyle=orthogonalEdgeStyle;rounded=0;orthogonalLoop=1;jettySize=auto;html=1;" edge="1" parent="1" source="-i1zvWEumdSscIj1k0k0-12" target="-i1zvWEumdSscIj1k0k0-14">
          <mxGeometry relative="1" as="geometry" />
        </mxCell>
        <mxCell id="-i1zvWEumdSscIj1k0k0-18" style="edgeStyle=orthogonalEdgeStyle;rounded=0;orthogonalLoop=1;jettySize=auto;html=1;entryX=0.5;entryY=0;entryDx=0;entryDy=0;" edge="1" parent="1" source="-i1zvWEumdSscIj1k0k0-12" target="-i1zvWEumdSscIj1k0k0-17">
          <mxGeometry relative="1" as="geometry" />
        </mxCell>
        <mxCell id="-i1zvWEumdSscIj1k0k0-12" value="stoi succeeded?" style="rhombus;whiteSpace=wrap;html=1;" vertex="1" parent="1">
          <mxGeometry x="339" y="750" width="151" height="120" as="geometry" />
        </mxCell>
        <mxCell id="-i1zvWEumdSscIj1k0k0-22" style="edgeStyle=orthogonalEdgeStyle;rounded=0;orthogonalLoop=1;jettySize=auto;html=1;entryX=0.5;entryY=0;entryDx=0;entryDy=0;" edge="1" parent="1" source="-i1zvWEumdSscIj1k0k0-14" target="-i1zvWEumdSscIj1k0k0-21">
          <mxGeometry relative="1" as="geometry" />
        </mxCell>
        <mxCell id="-i1zvWEumdSscIj1k0k0-14" value="isInteger = true" style="rounded=0;whiteSpace=wrap;html=1;" vertex="1" parent="1">
          <mxGeometry x="354" y="910" width="120" height="60" as="geometry" />
        </mxCell>
        <mxCell id="-i1zvWEumdSscIj1k0k0-24" style="edgeStyle=orthogonalEdgeStyle;rounded=0;orthogonalLoop=1;jettySize=auto;html=1;entryX=0.5;entryY=0;entryDx=0;entryDy=0;" edge="1" parent="1" source="-i1zvWEumdSscIj1k0k0-17" target="-i1zvWEumdSscIj1k0k0-21">
          <mxGeometry relative="1" as="geometry">
            <mxPoint x="500" y="1000" as="targetPoint" />
          </mxGeometry>
        </mxCell>
        <mxCell id="-i1zvWEumdSscIj1k0k0-17" value="isInteger = false" style="rounded=0;whiteSpace=wrap;html=1;" vertex="1" parent="1">
          <mxGeometry x="540" y="910" width="120" height="60" as="geometry" />
        </mxCell>
        <mxCell id="-i1zvWEumdSscIj1k0k0-19" value="False" style="text;html=1;align=center;verticalAlign=middle;resizable=0;points=[];autosize=1;strokeColor=none;fillColor=none;" vertex="1" parent="1">
          <mxGeometry x="514" y="780" width="50" height="30" as="geometry" />
        </mxCell>
        <mxCell id="-i1zvWEumdSscIj1k0k0-20" value="True" style="text;html=1;align=center;verticalAlign=middle;resizable=0;points=[];autosize=1;strokeColor=none;fillColor=none;" vertex="1" parent="1">
          <mxGeometry x="414" y="870" width="50" height="30" as="geometry" />
        </mxCell>
        <mxCell id="-i1zvWEumdSscIj1k0k0-36" style="edgeStyle=orthogonalEdgeStyle;rounded=0;orthogonalLoop=1;jettySize=auto;html=1;exitX=0.5;exitY=1;exitDx=0;exitDy=0;entryX=0.5;entryY=0;entryDx=0;entryDy=0;" edge="1" parent="1" source="-i1zvWEumdSscIj1k0k0-21" target="-i1zvWEumdSscIj1k0k0-35">
          <mxGeometry relative="1" as="geometry" />
        </mxCell>
        <mxCell id="-i1zvWEumdSscIj1k0k0-21" value="&lt;span class=&quot;hljs-keyword&quot;&gt;Trim Leading Whitespace:&lt;/span&gt;&lt;div&gt;&lt;span class=&quot;hljs-keyword&quot;&gt;start&lt;/span&gt; &lt;span class=&quot;hljs-operator&quot;&gt;=&lt;/span&gt; &lt;span class=&quot;hljs-number&quot;&gt;0&lt;/span&gt;&lt;br&gt;WHILE &lt;span class=&quot;hljs-keyword&quot;&gt;start&lt;/span&gt; &lt;span class=&quot;hljs-operator&quot;&gt;&amp;lt;&lt;/span&gt; result.size() &lt;span class=&quot;hljs-keyword&quot;&gt;AND&lt;/span&gt; isspace(&lt;span class=&quot;hljs-keyword&quot;&gt;result&lt;/span&gt;[&lt;span class=&quot;hljs-keyword&quot;&gt;start&lt;/span&gt;]):&lt;br&gt;    &lt;span class=&quot;hljs-keyword&quot;&gt;start&lt;/span&gt;&lt;span class=&quot;hljs-operator&quot;&gt;+&lt;/span&gt;&lt;span class=&quot;hljs-operator&quot;&gt;+&lt;/span&gt;&lt;/div&gt;" style="rounded=0;whiteSpace=wrap;html=1;" vertex="1" parent="1">
          <mxGeometry x="405" y="1030" width="190" height="80" as="geometry" />
        </mxCell>
        <mxCell id="-i1zvWEumdSscIj1k0k0-28" value="" style="edgeStyle=orthogonalEdgeStyle;rounded=0;orthogonalLoop=1;jettySize=auto;html=1;" edge="1" parent="1" source="-i1zvWEumdSscIj1k0k0-25" target="-i1zvWEumdSscIj1k0k0-27">
          <mxGeometry relative="1" as="geometry" />
        </mxCell>
        <mxCell id="-i1zvWEumdSscIj1k0k0-30" style="edgeStyle=orthogonalEdgeStyle;rounded=0;orthogonalLoop=1;jettySize=auto;html=1;entryX=0.5;entryY=0;entryDx=0;entryDy=0;" edge="1" parent="1" source="-i1zvWEumdSscIj1k0k0-25" target="-i1zvWEumdSscIj1k0k0-29">
          <mxGeometry relative="1" as="geometry" />
        </mxCell>
        <mxCell id="-i1zvWEumdSscIj1k0k0-25" value="Return Result:&lt;div&gt;start &amp;lt;= end?&lt;/div&gt;" style="rhombus;whiteSpace=wrap;html=1;" vertex="1" parent="1">
          <mxGeometry x="412" y="1230" width="176" height="130" as="geometry" />
        </mxCell>
        <mxCell id="-i1zvWEumdSscIj1k0k0-32" style="edgeStyle=orthogonalEdgeStyle;rounded=0;orthogonalLoop=1;jettySize=auto;html=1;entryX=0.5;entryY=0;entryDx=0;entryDy=0;" edge="1" parent="1" source="-i1zvWEumdSscIj1k0k0-27" target="-i1zvWEumdSscIj1k0k0-31">
          <mxGeometry relative="1" as="geometry" />
        </mxCell>
        <mxCell id="-i1zvWEumdSscIj1k0k0-27" value="Return &lt;code&gt;result.substr(start, end - start + 1)&lt;/code&gt;" style="rounded=0;whiteSpace=wrap;html=1;" vertex="1" parent="1">
          <mxGeometry x="430" y="1400" width="140" height="60" as="geometry" />
        </mxCell>
        <mxCell id="-i1zvWEumdSscIj1k0k0-33" style="edgeStyle=orthogonalEdgeStyle;rounded=0;orthogonalLoop=1;jettySize=auto;html=1;entryX=0.5;entryY=0;entryDx=0;entryDy=0;" edge="1" parent="1" source="-i1zvWEumdSscIj1k0k0-29" target="-i1zvWEumdSscIj1k0k0-31">
          <mxGeometry relative="1" as="geometry" />
        </mxCell>
        <mxCell id="-i1zvWEumdSscIj1k0k0-29" value="&amp;nbsp;Return &lt;code&gt;&quot;&quot;&lt;/code&gt;" style="rounded=0;whiteSpace=wrap;html=1;" vertex="1" parent="1">
          <mxGeometry x="640" y="1400" width="120" height="60" as="geometry" />
        </mxCell>
        <mxCell id="-i1zvWEumdSscIj1k0k0-31" value="End" style="ellipse;whiteSpace=wrap;html=1;" vertex="1" parent="1">
          <mxGeometry x="550" y="1560" width="120" height="80" as="geometry" />
        </mxCell>
        <mxCell id="-i1zvWEumdSscIj1k0k0-34" value="False" style="text;html=1;align=center;verticalAlign=middle;resizable=0;points=[];autosize=1;strokeColor=none;fillColor=none;" vertex="1" parent="1">
          <mxGeometry x="538" y="350" width="50" height="30" as="geometry" />
        </mxCell>
        <mxCell id="-i1zvWEumdSscIj1k0k0-37" value="" style="edgeStyle=orthogonalEdgeStyle;rounded=0;orthogonalLoop=1;jettySize=auto;html=1;" edge="1" parent="1" source="-i1zvWEumdSscIj1k0k0-35" target="-i1zvWEumdSscIj1k0k0-25">
          <mxGeometry relative="1" as="geometry" />
        </mxCell>
        <mxCell id="-i1zvWEumdSscIj1k0k0-35" value="Trim Trailing Whitespace:&lt;div&gt;&lt;span class=&quot;hljs-keyword&quot;&gt;end&lt;/span&gt; &lt;span class=&quot;hljs-operator&quot;&gt;=&lt;/span&gt; result.size() &lt;span class=&quot;hljs-operator&quot;&gt;-&lt;/span&gt; &lt;span class=&quot;hljs-number&quot;&gt;1&lt;/span&gt;&lt;br/&gt;WHILE &lt;span class=&quot;hljs-keyword&quot;&gt;end&lt;/span&gt; &lt;span class=&quot;hljs-operator&quot;&gt;&amp;gt;=&lt;/span&gt; &lt;span class=&quot;hljs-number&quot;&gt;0&lt;/span&gt; &lt;span class=&quot;hljs-keyword&quot;&gt;AND&lt;/span&gt; isspace(&lt;span class=&quot;hljs-keyword&quot;&gt;result&lt;/span&gt;[&lt;span class=&quot;hljs-keyword&quot;&gt;end&lt;/span&gt;]):&lt;br/&gt;    &lt;span class=&quot;hljs-keyword&quot;&gt;end&lt;/span&gt;&lt;span class=&quot;hljs-comment&quot;&gt;--&lt;/span&gt;&lt;/div&gt;" style="rounded=0;whiteSpace=wrap;html=1;" vertex="1" parent="1">
          <mxGeometry x="405" y="1130" width="190" height="80" as="geometry" />
        </mxCell>
      </root>
    </mxGraphModel>
  </diagram>
</mxfile>
